PathFileType	4	(x/y/z)	S01_P20_T22
DataRate	CameraRate	NumFrames	NumMarkers	Units	OrigDataRate	OrigDataStartFrame	OrigNumFrames
240	240	9	51	mm	240	304	404
Frame#	Time	Sternum			R.Acromium			L.Acromium			Top.Head			R.ASIS			L.ASIS			R.PSIS			L.PSIS			R.Great.Tro			L.Great.Tro			R.Iliac.Crest			L.Iliac.Crest			V.Sacral			R.Thigh.Upper.Post			R.Thigh.Lower.Ant			R.Thigh.Lower.Post			R.Thigh.Upper.Ant			R.Knee.Lat			R.Knee.Med			R.Shank.Upper.Post			R.Shank.Lower.Ant			R.Shank.Lower.Post			R.Shank.Upper.Ant			R.Ankle.Lat			R.Ankle.Med			R.Heel.Upper			R.Heel.Med			R.Heel.Lat			R.Toe.Lat			R.Toe.Med			R.Toe.Tip			L.Thigh.Upper.Post			L.Thigh.Lower.Ant			L.Thigh.Lower.Post			L.Thigh.Upper.Ant			L.Knee.Lat			L.Knee.Med			L.Shank.Upper.Post			L.Shank.Lower.Ant			L.Shank.Lower.Post			L.Shank.Upper.Ant			L.Ankle.Lat			L.Ankle.Med			L.Heel.Upper			L.Heel.Med			L.Heel.Lat			L.Toe.Lat			L.Toe.Med			L.Toe.Tip			Cervical.Spine			Back			
		X1	Y1	Z1	X2	Y2	Z2	X3	Y3	Z3	X4	Y4	Z4	X5	Y5	Z5	X6	Y6	Z6	X7	Y7	Z7	X8	Y8	Z8	X9	Y9	Z9	X10	Y10	Z10	X11	Y11	Z11	X12	Y12	Z12	X13	Y13	Z13	X14	Y14	Z14	X15	Y15	Z15	X16	Y16	Z16	X17	Y17	Z17	X18	Y18	Z18	X19	Y19	Z19	X20	Y20	Z20	X21	Y21	Z21	X22	Y22	Z22	X23	Y23	Z23	X24	Y24	Z24	X25	Y25	Z25	X26	Y26	Z26	X27	Y27	Z27	X28	Y28	Z28	X29	Y29	Z29	X30	Y30	Z30	X31	Y31	Z31	X32	Y32	Z32	X33	Y33	Z33	X34	Y34	Z34	X35	Y35	Z35	X36	Y36	Z36	X37	Y37	Z37	X38	Y38	Z38	X39	Y39	Z39	X40	Y40	Z40	X41	Y41	Z41	X42	Y42	Z42	X43	Y43	Z43	X44	Y44	Z44	X45	Y45	Z45	X46	Y46	Z46	X47	Y47	Z47	X48	Y48	Z48	X49	Y49	Z49	X50	Y50	Z50	X51	Y51	Z51	

304	1.2625	322.9	1297.1	247.35	201.04	1549.8	413.11	196.22	1555.9	79.912	230.45	1867.9	231.88	262.68	1047.9	405.58	285.91	1036.9	142.3	36.068	1088.8	298.47	42.469	1086.2	194.56	185.66	1001.9	486.58	184.33	986.12	57.734	172.74	1152.1	460.49	184.09	1119.9	58.302	24.862	1051.2	243.67	292.87	707.22	479.09	386.64	667.82	462.69	330.38	627.01	462.05	351.49	750.49	477.93	369.51	572.74	459.12	391.34	581.41	316.33	291.62	425.45	463.15	339.39	335.26	418.23	275.07	358.64	445.13	351.9	404.29	442.69	237.87	163.46	393.01	279.74	170.81	305.07	171.18	148.01	325.35	185	119.63	294.3	172.55	112.6	357.31	347.63	63.757	430.16	393.5	78.442	314.56	451.46	84.071	377.02	154.43	699.43	82.318	241.78	631.99	86.231	167.05	610.82	100.56	220.54	722.67	66.507	216.66	524.86	97.119	237.42	532.08	236.02	149.41	393.31	76.049	195.91	296.14	103.86	139.32	316.02	79.018	207.31	372.05	95.449	91.096	107.07	113.71	113.9	117.17	210.79	19.019	73.142	156.14	27.563	48.107	190.6	29.814	46.585	128.46	238.16	41.465	97.825	260.71	52.687	220.49	323.53	65.52	170.39	115.29	1609.3	245.33	24.775	1303.7	263.75
305	1.2667	328.61	1296.6	247.59	206.89	1549.5	413.34	202.31	1555.6	80.146	235.98	1867.6	232.14	268.22	1047.5	405.76	291.19	1036.3	142.45	41.586	1088.8	298.82	47.851	1086.2	194.91	191.21	1001.7	486.82	189.3	985.8	57.978	178.45	1151.8	460.72	189.47	1119.5	58.476	30.205	1051.3	244.02	298.51	706.94	478.68	392.31	667.73	462.05	336.14	626.83	461.42	357.06	750.3	477.53	375.69	572.86	458.44	396.94	581.49	315.62	301.39	423.66	463.15	351.42	334.63	418.46	286.55	356.39	445.34	362.2	404.01	442.62	254.77	159.89	393.9	296.3	168.17	305.94	188.42	142.22	326.4	203.11	114.18	295.47	190.87	107.02	358.48	367.35	63.658	431.4	412.72	79.271	315.72	470.51	86.81	378.12	157.57	699.45	82.456	244.51	631.46	86.181	169.67	610.75	100.6	223.73	722.23	66.53	218.65	524.42	97.035	239.72	531.47	235.93	150.73	393.16	76.06	196.83	295.78	103.78	140.32	315.92	79.008	208.59	371.62	95.344	91.244	107.13	113.82	114.18	117.13	210.89	19.107	73.233	156.24	27.66	48.144	190.66	29.875	46.706	128.53	238.25	41.308	97.757	260.82	52.369	220.46	323.64	65.129	170.35	121.25	1609	245.49	30.474	1303.6	263.89
306	1.2708	334.35	1296	247.83	212.77	1549	413.57	208.4	1555.2	80.395	241.55	1867.3	232.42	273.77	1047	405.96	296.46	1035.6	142.61	47.104	1088.6	299.17	53.228	1086.1	195.26	196.75	1001.4	487.07	194.26	985.41	58.225	184.15	1151.5	460.96	194.83	1119	58.666	35.552	1051.2	244.37	304.05	706.51	478.25	397.87	667.48	461.41	341.78	626.5	460.76	362.54	749.95	477.14	381.78	572.86	457.74	402.45	581.41	314.87	311.11	421.86	463.15	363.34	334.04	418.72	297.98	354.18	445.57	372.39	403.73	442.56	271.63	156.49	394.85	312.79	165.68	306.86	205.68	136.61	327.53	221.21	108.93	296.71	209.2	101.65	359.72	386.91	63.782	432.7	431.75	80.289	316.93	489.31	89.723	379.27	160.78	699.4	82.6	247.31	630.88	86.137	172.37	610.63	100.64	226.97	721.77	66.555	220.73	523.95	96.96	242.11	530.83	235.85	152.12	392.98	76.075	197.81	295.39	103.71	141.38	315.8	79.007	209.94	371.16	95.247	91.406	107.18	113.94	114.47	117.07	211	19.203	73.333	156.36	27.754	48.184	190.73	29.943	46.839	128.61	238.34	41.148	97.694	260.95	52.034	220.45	323.77	64.71	170.32	127.22	1608.7	245.67	36.174	1303.3	264.06
307	1.275	340.1	1295.2	248.08	218.7	1548.5	413.82	214.51	1554.7	80.659	247.14	1866.9	232.71	279.32	1046.4	406.17	301.74	1034.8	142.77	52.622	1088.4	299.54	58.599	1085.9	195.62	202.28	1001	487.32	199.22	984.97	58.475	189.87	1151	461.21	200.16	1118.4	58.874	40.903	1051	244.73	309.5	705.94	477.81	403.33	667.06	460.77	347.32	626.02	460.09	367.94	749.45	476.76	387.78	572.75	457.02	407.88	581.17	314.09	320.76	420.08	463.14	375.15	333.51	419.01	309.33	352.03	445.83	382.47	403.46	442.52	288.41	153.28	395.87	329.18	163.34	307.83	222.93	131.19	328.72	239.26	103.9	298.01	227.49	96.513	361.04	406.27	64.125	434.04	450.56	81.491	318.19	507.85	92.801	380.46	164.05	699.3	82.748	250.18	630.26	86.1	175.16	610.45	100.7	230.25	721.27	66.583	222.9	523.45	96.892	244.59	530.15	235.77	153.59	392.79	76.096	198.85	294.97	103.65	142.5	315.67	79.016	211.36	370.68	95.158	91.581	107.25	114.07	114.77	117.01	211.12	19.308	73.44	156.48	27.847	48.228	190.8	30.017	46.984	128.69	238.44	40.986	97.634	261.09	51.685	220.43	323.91	64.262	170.3	133.21	1608.3	245.87	41.877	1303	264.25
308	1.2792	345.87	1294.3	248.33	224.66	1547.9	414.07	220.62	1554.1	80.94	252.75	1866.3	233.01	284.88	1045.7	406.4	307.01	1033.9	142.94	58.142	1088.1	299.91	63.966	1085.6	196	207.82	1000.5	487.57	204.19	984.47	58.73	195.58	1150.4	461.46	205.47	1117.7	59.101	46.261	1050.7	245.1	314.87	705.24	477.37	408.71	666.5	460.14	352.76	625.41	459.4	373.27	748.8	476.38	393.71	572.54	456.29	413.23	580.79	313.27	330.35	418.31	463.14	386.83	333.02	419.31	320.61	349.94	446.1	392.43	403.2	442.48	305.08	150.25	396.94	345.44	161.15	308.85	240.12	126	329.97	257.23	99.096	299.38	245.7	91.624	362.41	425.39	64.681	435.43	469.11	82.867	319.49	526.09	96.029	381.68	167.39	699.14	82.903	253.12	629.6	86.069	178.02	610.23	100.77	233.59	720.73	66.614	225.17	522.9	96.831	247.17	529.43	235.71	155.14	392.58	76.121	199.95	294.53	103.6	143.69	315.52	79.035	212.85	370.17	95.077	91.769	107.32	114.22	115.07	116.95	211.25	19.422	73.557	156.62	27.94	48.276	190.88	30.098	47.142	128.77	238.55	40.822	97.578	261.23	51.326	220.42	324.07	63.789	170.29	139.2	1607.8	246.1	47.581	1302.6	264.47
309	1.2833	351.66	1293.4	248.58	230.66	1547.2	414.33	226.73	1553.4	81.237	258.39	1865.7	233.33	290.45	1045	406.64	312.29	1033	143.11	63.665	1087.6	300.3	69.33	1085.3	196.38	213.36	999.85	487.83	209.15	983.92	58.989	201.29	1149.8	461.72	210.77	1116.9	59.346	51.627	1050.4	245.48	320.18	704.4	476.94	414.01	665.8	459.51	358.12	624.65	458.72	378.54	748.01	476.02	399.57	572.23	455.55	418.51	580.27	312.42	339.86	416.58	463.13	398.38	332.58	419.63	331.81	347.93	446.39	402.27	402.95	442.45	321.6	147.42	398.05	361.54	159.11	309.91	257.23	121.03	331.26	275.07	94.53	300.79	263.79	86.99	363.83	444.23	65.441	436.86	487.38	84.401	320.82	544	99.389	382.92	170.8	698.93	83.063	256.15	628.9	86.045	180.97	609.95	100.85	236.99	720.17	66.649	227.53	522.32	96.778	249.85	528.67	235.65	156.77	392.35	76.152	201.11	294.07	103.55	144.94	315.35	79.063	214.41	369.63	95.004	91.97	107.4	114.38	115.38	116.88	211.39	19.545	73.684	156.76	28.033	48.329	190.97	30.185	47.313	128.87	238.66	40.658	97.527	261.39	50.959	220.41	324.24	63.291	170.28	145.2	1607.3	246.34	53.287	1302.2	264.72
310	1.2875	357.46	1292.2	248.84	236.69	1546.5	414.6	232.84	1552.7	81.551	264.07	1865.1	233.67	296.03	1044.1	406.89	317.57	1032	143.28	69.192	1087.1	300.69	74.694	1084.8	196.78	218.92	999.12	488.1	214.12	983.31	59.253	207.01	1149	461.99	216.06	1116.1	59.611	57.003	1049.9	245.87	325.42	703.43	476.52	419.26	664.96	458.89	363.4	623.77	458.03	383.75	747.09	475.66	405.39	571.82	454.8	423.73	579.62	311.53	349.3	414.88	463.12	409.78	332.18	419.97	342.9	345.98	446.69	411.98	402.7	442.41	337.93	144.79	399.2	377.45	157.23	310.99	274.2	116.3	332.59	292.75	90.208	302.24	281.71	82.618	365.29	462.75	66.39	438.3	505.33	86.079	322.18	561.55	102.86	384.18	174.29	698.66	83.228	259.25	628.15	86.028	184	609.62	100.94	240.45	719.56	66.686	229.99	521.7	96.732	252.62	527.87	235.59	158.48	392.1	76.189	202.33	293.57	103.52	146.25	315.17	79.101	216.05	369.06	94.938	92.183	107.48	114.55	115.7	116.8	211.55	19.676	73.821	156.92	28.128	48.387	191.07	30.277	47.499	128.97	238.78	40.495	97.481	261.55	50.587	220.41	324.43	62.771	170.28	151.21	1606.6	246.6	58.995	1301.6	264.99
311	1.2917	363.29	1291	249.1	242.76	1545.6	414.88	238.95	1551.9	81.884	269.76	1864.3	234.03	301.63	1043.1	407.15	322.86	1030.9	143.46	74.725	1086.5	301.1	80.059	1084.3	197.18	224.48	998.29	488.36	219.11	982.66	59.522	212.73	1148.2	462.27	221.33	1115.2	59.893	62.39	1049.4	246.27	330.63	702.35	476.12	424.47	664	458.27	368.64	622.77	457.36	388.93	746.05	475.31	411.18	571.34	454.04	428.89	578.85	310.62	358.65	413.21	463.11	421.01	331.83	420.31	353.87	344.12	446.99	421.57	402.47	442.38	354.04	142.36	400.38	393.13	155.51	312.1	290.99	111.81	333.94	310.22	86.131	303.72	299.42	78.509	366.77	480.92	67.513	439.77	522.93	87.88	323.55	578.71	106.42	385.45	177.85	698.34	83.399	262.44	627.37	86.018	187.12	609.24	101.04	243.98	718.93	66.727	232.55	521.03	96.692	255.5	527.03	235.55	160.27	391.83	76.231	203.61	293.06	103.5	147.63	314.97	79.148	217.76	368.47	94.878	92.407	107.58	114.73	116.02	116.73	211.71	19.816	73.969	157.09	28.225	48.451	191.18	30.375	47.699	129.08	238.9	40.332	97.441	261.73	50.212	220.41	324.62	62.232	170.28	157.22	1605.9	246.89	64.704	1301	265.3
312	1.2958	369.12	1289.7	249.37	248.85	1544.7	415.18	245.05	1551	82.236	275.49	1863.5	234.41	307.24	1042.1	407.41	328.16	1029.8	143.63	80.265	1085.8	301.52	85.427	1083.7	197.6	230.06	997.36	488.63	224.1	981.95	59.797	218.45	1147.2	462.57	226.59	1114.2	60.19	67.791	1048.8	246.68	335.81	701.17	475.75	429.65	662.93	457.67	373.84	621.67	456.69	394.09	744.91	474.97	416.94	570.77	453.29	434.02	577.98	309.69	367.91	411.59	463.1	432.08	331.52	420.65	364.72	342.34	447.3	431.02	402.23	442.35	369.89	140.12	401.57	408.55	153.93	313.21	307.57	107.58	335.3	327.43	82.302	305.22	316.88	74.666	368.27	498.69	68.79	441.23	540.14	89.783	324.94	595.45	110.04	386.72	181.5	697.97	83.575	265.71	626.54	86.014	190.33	608.81	101.14	247.59	718.26	66.769	235.2	520.33	96.658	258.48	526.15	235.5	162.14	391.54	76.278	204.96	292.52	103.48	149.08	314.76	79.205	219.54	367.85	94.826	92.643	107.68	114.93	116.35	116.65	211.89	19.964	74.129	157.28	28.326	48.522	191.3	30.478	47.914	129.21	239.03	40.172	97.406	261.91	49.838	220.41	324.83	61.676	170.28	163.23	1605.2	247.21	70.416	1300.4	265.64
